# Blender v2.79 (sub 0) OBJ File: 'concave.blend'
# www.blender.org
mtllib default.mtl
o concave_a
v 0.000000 0.000000 -0.333333
v 0.000000 0.000000 -1.000000
v 1.000000 0.000000 -1.000000
v 1.000000 0.000000 -0.333333
v 0.000000 -0.000000 1.000000
v 0.000000 -0.000000 0.333333
v 1.000000 -0.000000 0.333333
v 1.000000 -0.000000 1.000000
v -1.000000 -0.000000 0.333333
v -1.000000 0.000000 -0.333333
v -1.000000 -0.000000 1.000000
v -1.000000 0.000000 -1.000000
v -1.000000 1.000000 0.333333
v -1.000000 1.000000 -0.333333
v 0.000000 1.000000 0.333333
v 1.000000 1.000000 0.333333
v 1.000000 1.000000 -1.000000
v 1.000000 1.000000 1.000000
v 1.000000 1.000000 -0.333333
v 0.000000 1.000000 -0.333333
v -1.000000 1.000000 -1.000000
v 0.000000 1.000000 -1.000000
v -1.000000 1.000000 1.000000
v 0.000000 1.000000 1.000000
vn -1.0000 -0.0000 0.0000
vn 1.0000 -0.0000 0.0000
vn 0.0000 0.0000 -1.0000
vn 0.0000 -0.0000 1.0000
vn 0.0000 -1.0000 -0.0000
vn 0.0000 1.0000 0.0000
usemtl Red
s 1
f 10//1 9//1 13//1
f 4//2 3//2 17//2
f 8//2 7//2 16//2
f 16//2 18//2 8//2
f 9//1 11//1 23//1
f 23//1 13//1 9//1
f 6//2 1//2 20//2
f 14//1 21//1 12//1
usemtl Green
f 7//3 6//3 15//3
f 15//3 16//3 7//3
f 1//4 4//4 19//4
f 19//4 20//4 1//4
f 2//3 12//3 21//3
f 21//3 22//3 2//3
f 3//3 2//3 22//3
f 22//3 17//3 3//3
f 11//4 5//4 24//4
f 24//4 23//4 11//4
f 5//4 8//4 18//4
f 18//4 24//4 5//4
usemtl Blue
f 1//5 2//5 3//5
f 3//5 4//5 1//5
f 5//5 6//5 7//5
f 7//5 8//5 5//5
f 9//5 10//5 1//5
f 1//5 6//5 9//5
f 11//5 9//5 6//5
f 6//5 5//5 11//5
f 10//5 12//5 2//5
f 2//5 1//5 10//5
f 15//6 13//6 23//6
f 17//6 22//6 20//6
f 24//6 18//6 16//6
f 16//6 15//6 24//6
f 13//6 15//6 20//6
f 20//6 14//6 13//6
f 23//6 24//6 15//6
f 14//6 20//6 22//6
f 22//6 21//6 14//6
usemtl White
f 13//1 14//1 10//1
f 20//2 15//2 6//2
f 12//1 10//1 14//1
f 20//6 19//6 17//6
f 17//2 19//2 4//2
o concave_b
v 1.500000 0.000000 -0.666667
v 1.500000 0.000000 0.000000
v 0.500000 0.000000 0.000000
v 0.500000 0.000000 -0.666667
v 1.500000 0.000000 -2.000000
v 1.500000 0.000000 -1.333333
v 0.500000 0.000000 -1.333333
v 0.500000 0.000000 -2.000000
v 1.500000 1.000000 -0.666667
v 0.500000 1.000000 -0.666667
v 0.500000 1.000000 0.000000
v 1.500000 1.000000 0.000000
v 2.500000 0.000000 -1.333333
v 2.500000 0.000000 -0.666667
v 2.500000 0.000000 -2.000000
v 2.500000 0.000000 0.000000
v 1.500000 1.000000 -2.000000
v 0.500000 1.000000 -2.000000
v 0.500000 1.000000 -1.333333
v 1.500000 1.000000 -1.333333
v 2.500000 1.000000 -1.333334
v 2.500000 1.000000 -0.666667
v 2.500000 1.000000 -2.000000
v 2.500000 1.000000 0.000000
vn 0.0000 -1.0000 -0.0000
vn 0.0000 1.0000 0.0000
vn 0.0000 0.0000 1.0000
vn 0.0000 0.0000 -1.0000
vn -1.0000 0.0000 0.0000
vn 1.0000 0.0000 0.0000
usemtl Blue
s 1
f 25//7 26//7 27//7
f 27//7 28//7 25//7
f 29//7 30//7 31//7
f 31//7 32//7 29//7
f 33//8 34//8 35//8
f 37//7 38//7 25//7
f 25//7 30//7 37//7
f 39//7 37//7 30//7
f 30//7 29//7 39//7
f 38//7 40//7 26//7
f 26//7 25//7 38//7
f 41//8 42//8 43//8
f 43//8 44//8 41//8
f 45//8 44//8 33//8
f 33//8 46//8 45//8
f 47//8 41//8 44//8
f 44//8 45//8 47//8
f 46//8 33//8 36//8
f 36//8 48//8 46//8
f 31//9 30//9 44//9
f 44//9 43//9 31//9
f 25//10 28//10 34//10
f 34//10 33//10 25//10
f 30//11 25//11 33//11
usemtl Red
f 45//12 46//12 38//12
f 35//11 34//11 28//11
f 32//11 31//11 43//11
f 43//11 42//11 32//11
f 37//12 39//12 47//12
f 40//12 38//12 46//12
f 46//12 48//12 40//12
usemtl Green
f 26//9 40//9 48//9
f 48//9 36//9 26//9
f 39//10 29//10 41//10
f 41//10 47//10 39//10
f 27//9 26//9 36//9
f 36//9 35//9 27//9
f 29//10 32//10 42//10
f 42//10 41//10 29//10
usemtl White
f 35//8 36//8 33//8
f 38//12 37//12 45//12
f 28//11 27//11 35//11
f 47//12 45//12 37//12
f 33//11 44//11 30//11
