# Blender v2.79 (sub 0) OBJ File: ''
# www.blender.org
mtllib default.mtl
o torus_a
v 1.500000 0.500000 0.800000
v 1.311745 0.890916 0.800000
v 0.888740 0.987464 0.800000
v 0.549516 0.716942 0.800000
v 0.549516 0.283058 0.800000
v 0.888740 0.012536 0.800000
v 1.311745 0.109084 0.800000
v 1.328184 0.500000 0.102915
v 1.161492 0.890916 0.190402
v 0.786940 0.987464 0.386982
v 0.486572 0.716942 0.544627
v 0.486572 0.283058 0.544627
v 0.786940 0.012536 0.386982
v 1.161492 0.109084 0.190402
v 0.852097 0.500000 -0.434476
v 0.745156 0.890916 -0.279545
v 0.504861 0.987464 0.068582
v 0.312160 0.716942 0.347758
v 0.312160 0.283058 0.347758
v 0.504861 0.012536 0.068582
v 0.745156 0.109084 -0.279545
v 0.180805 0.500000 -0.689063
v 0.158114 0.890916 -0.502181
v 0.107126 0.987464 -0.082260
v 0.066237 0.716942 0.254491
v 0.066237 0.283058 0.254491
v 0.107126 0.012536 -0.082260
v 0.158114 0.109084 -0.502181
v -0.531907 0.500000 -0.602524
v -0.465151 0.890916 -0.426503
v -0.315151 0.987464 -0.030986
v -0.194861 0.716942 0.286194
v -0.194861 0.283058 0.286194
v -0.315151 0.012536 -0.030986
v -0.465151 0.109084 -0.426503
v -1.122766 0.500000 -0.194684
v -0.981855 0.890916 -0.069848
v -0.665231 0.987464 0.210657
v -0.411318 0.716942 0.435604
v -0.411318 0.283058 0.435604
v -0.665231 0.012536 0.210657
v -0.981855 0.109084 -0.069848
v -1.456413 0.500000 0.441027
v -1.273628 0.890916 0.486079
v -0.862914 0.987464 0.587311
v -0.533548 0.716942 0.668492
v -0.533548 0.283058 0.668492
v -0.862914 0.012536 0.587311
v -1.273628 0.109084 0.486079
v -1.456413 0.500000 1.158973
v -1.273628 0.890916 1.113921
v -0.862914 0.987464 1.012689
v -0.533548 0.716942 0.931507
v -0.533548 0.283058 0.931507
v -0.862914 0.012536 1.012689
v -1.273628 0.109084 1.113921
v -1.122766 0.500000 1.794684
v -0.981855 0.890916 1.669847
v -0.665231 0.987464 1.389343
v -0.411318 0.716942 1.164396
v -0.411318 0.283058 1.164396
v -0.665231 0.012536 1.389343
v -0.981855 0.109084 1.669847
v -0.531907 0.500000 2.202524
v -0.465151 0.890916 2.026503
v -0.315151 0.987464 1.630986
v -0.194861 0.716942 1.313806
v -0.194861 0.283058 1.313806
v -0.315151 0.012536 1.630986
v -0.465151 0.109084 2.026503
v 0.180805 0.500000 2.289063
v 0.158114 0.890916 2.102181
v 0.107126 0.987464 1.682260
v 0.066237 0.716942 1.345509
v 0.066237 0.283058 1.345509
v 0.107126 0.012536 1.682260
v 0.158114 0.109084 2.102181
v 0.852096 0.500000 2.034476
v 0.745155 0.890916 1.879545
v 0.504861 0.987464 1.531419
v 0.312160 0.716942 1.252243
v 0.312160 0.283058 1.252243
v 0.504861 0.012536 1.531419
v 0.745155 0.109084 1.879545
v 1.328184 0.500000 1.497085
v 1.161492 0.890916 1.409599
v 0.786940 0.987464 1.213018
v 0.486572 0.716942 1.055373
v 0.486572 0.283058 1.055373
v 0.786940 0.012536 1.213018
v 1.161492 0.109084 1.409599
vn 0.8795 0.4236 -0.2168
vn 0.2222 0.9735 -0.0548
vn -0.6163 0.7728 0.1519
vn -0.9709 0.0000 0.2393
vn -0.6163 -0.7728 0.1519
vn 0.2222 -0.9735 -0.0548
vn 0.8795 -0.4236 -0.2168
vn 0.6781 0.4236 -0.6007
vn 0.1713 0.9735 -0.1517
vn -0.4751 0.7728 0.4209
vn -0.7485 0.0000 0.6631
vn -0.4751 -0.7728 0.4209
vn 0.1713 -0.9735 -0.1517
vn 0.6781 -0.4236 -0.6007
vn 0.3212 0.4236 -0.8470
vn 0.0811 0.9735 -0.2140
vn -0.2251 0.7728 0.5935
vn -0.3546 0.0000 0.9350
vn -0.2251 -0.7728 0.5935
vn 0.0811 -0.9735 -0.2140
vn 0.3212 -0.4236 -0.8470
vn -0.1092 0.4236 -0.8993
vn -0.0276 0.9735 -0.2272
vn 0.0765 0.7728 0.6301
vn 0.1205 0.0000 0.9927
vn 0.0765 -0.7728 0.6301
vn -0.0276 -0.9735 -0.2272
vn -0.1092 -0.4236 -0.8993
vn -0.5146 0.4236 -0.7455
vn -0.1300 0.9735 -0.1883
vn 0.3606 0.7728 0.5223
vn 0.5681 0.0000 0.8230
vn 0.3605 -0.7728 0.5223
vn -0.1300 -0.9735 -0.1883
vn -0.5146 -0.4236 -0.7455
vn -0.8021 0.4236 -0.4210
vn -0.2026 0.9735 -0.1063
vn 0.5620 0.7728 0.2950
vn 0.8855 0.0000 0.4647
vn 0.5620 -0.7728 0.2950
vn -0.2026 -0.9735 -0.1063
vn -0.8021 -0.4236 -0.4210
vn -0.9059 0.4236 -0.0000
vn -0.2288 0.9735 0.0000
vn 0.6347 0.7728 0.0000
vn 1.0000 0.0000 0.0000
vn 0.6347 -0.7728 0.0000
vn -0.2288 -0.9735 -0.0000
vn -0.9059 -0.4236 -0.0000
vn -0.8021 0.4236 0.4210
vn -0.2026 0.9735 0.1063
vn 0.5620 0.7728 -0.2950
vn 0.8855 0.0000 -0.4647
vn 0.5620 -0.7728 -0.2950
vn -0.2026 -0.9735 0.1063
vn -0.8021 -0.4236 0.4210
vn -0.5146 0.4236 0.7455
vn -0.1300 0.9735 0.1883
vn 0.3606 0.7728 -0.5223
vn 0.5681 0.0000 -0.8230
vn 0.3606 -0.7728 -0.5223
vn -0.1300 -0.9735 0.1883
vn -0.5146 -0.4236 0.7455
vn -0.1092 0.4236 0.8993
vn -0.0276 0.9735 0.2272
vn 0.0765 0.7728 -0.6301
vn 0.1205 0.0000 -0.9927
vn 0.0765 -0.7728 -0.6301
vn -0.0276 -0.9735 0.2272
vn -0.1092 -0.4236 0.8993
vn 0.3212 0.4236 0.8470
vn 0.0811 0.9735 0.2140
vn -0.2251 0.7728 -0.5935
vn -0.3546 0.0000 -0.9350
vn -0.2251 -0.7728 -0.5935
vn 0.0811 -0.9735 0.2140
vn 0.3212 -0.4236 0.8470
vn 0.6780 0.4236 0.6007
vn 0.1713 0.9735 0.1517
vn -0.4751 0.7728 -0.4209
vn -0.7485 0.0000 -0.6631
vn -0.4751 -0.7728 -0.4209
vn 0.1713 -0.9735 0.1517
vn 0.6780 -0.4236 0.6007
vn 0.8795 0.4236 0.2168
vn 0.2222 0.9735 0.0548
vn -0.6163 0.7728 -0.1519
vn -0.9709 0.0000 -0.2393
vn -0.6163 -0.7728 -0.1519
vn 0.2222 -0.9735 0.0548
vn 0.8795 -0.4236 0.2168
usemtl Red
s off
f 1//1 8//1 9//1 2//1
f 2//2 9//2 10//2 3//2
f 3//3 10//3 11//3 4//3
f 4//4 11//4 12//4 5//4
f 5//5 12//5 13//5 6//5
f 6//6 13//6 14//6 7//6
f 7//7 14//7 8//7 1//7
f 8//8 15//8 16//8 9//8
f 9//9 16//9 17//9 10//9
f 10//10 17//10 18//10 11//10
f 11//11 18//11 19//11 12//11
f 12//12 19//12 20//12 13//12
f 13//13 20//13 21//13 14//13
f 14//14 21//14 15//14 8//14
f 15//15 22//15 23//15 16//15
f 16//16 23//16 24//16 17//16
f 17//17 24//17 25//17 18//17
f 18//18 25//18 26//18 19//18
f 19//19 26//19 27//19 20//19
f 20//20 27//20 28//20 21//20
f 21//21 28//21 22//21 15//21
f 22//22 29//22 30//22 23//22
f 23//23 30//23 31//23 24//23
f 24//24 31//24 32//24 25//24
f 25//25 32//25 33//25 26//25
f 26//26 33//26 34//26 27//26
f 27//27 34//27 35//27 28//27
f 28//28 35//28 29//28 22//28
f 29//29 36//29 37//29 30//29
f 30//30 37//30 38//30 31//30
f 31//31 38//31 39//31 32//31
f 32//32 39//32 40//32 33//32
f 33//33 40//33 41//33 34//33
f 34//34 41//34 42//34 35//34
f 35//35 42//35 36//35 29//35
f 36//36 43//36 44//36 37//36
f 37//37 44//37 45//37 38//37
f 38//38 45//38 46//38 39//38
f 39//39 46//39 47//39 40//39
f 40//40 47//40 48//40 41//40
f 41//41 48//41 49//41 42//41
f 42//42 49//42 43//42 36//42
f 43//43 50//43 51//43 44//43
f 44//44 51//44 52//44 45//44
f 45//45 52//45 53//45 46//45
f 46//46 53//46 54//46 47//46
f 47//47 54//47 55//47 48//47
f 48//48 55//48 56//48 49//48
f 49//49 56//49 50//49 43//49
f 50//50 57//50 58//50 51//50
f 51//51 58//51 59//51 52//51
f 52//52 59//52 60//52 53//52
f 53//53 60//53 61//53 54//53
f 54//54 61//54 62//54 55//54
f 55//55 62//55 63//55 56//55
f 56//56 63//56 57//56 50//56
f 57//57 64//57 65//57 58//57
f 58//58 65//58 66//58 59//58
f 59//59 66//59 67//59 60//59
f 60//60 67//60 68//60 61//60
f 61//61 68//61 69//61 62//61
f 62//62 69//62 70//62 63//62
f 63//63 70//63 64//63 57//63
f 64//64 71//64 72//64 65//64
f 65//65 72//65 73//65 66//65
f 66//66 73//66 74//66 67//66
f 67//67 74//67 75//67 68//67
f 68//68 75//68 76//68 69//68
f 69//69 76//69 77//69 70//69
f 70//70 77//70 71//70 64//70
f 71//71 78//71 79//71 72//71
f 72//72 79//72 80//72 73//72
f 73//73 80//73 81//73 74//73
f 74//74 81//74 82//74 75//74
f 75//75 82//75 83//75 76//75
f 76//76 83//76 84//76 77//76
f 77//77 84//77 78//77 71//77
f 78//78 85//78 86//78 79//78
f 79//79 86//79 87//79 80//79
f 80//80 87//80 88//80 81//80
f 81//81 88//81 89//81 82//81
f 82//82 89//82 90//82 83//82
f 83//83 90//83 91//83 84//83
f 84//84 91//84 85//84 78//84
f 85//85 1//85 2//85 86//85
f 86//86 2//86 3//86 87//86
f 87//87 3//87 4//87 88//87
f 88//88 4//88 5//88 89//88
f 89//89 5//89 6//89 90//89
f 90//90 6//90 7//90 91//90
f 91//91 7//91 1//91 85//91
o torus_b
v -1.000000 0.000000 1.000000
v 1.000000 0.000000 1.000000
v -1.000000 0.000000 -1.000000
v 1.000000 0.000000 -1.000000
v 2.000000 0.000000 1.000000
v 2.000000 0.000000 -1.000000
v -2.000000 0.000000 1.000000
v -2.000000 0.000000 -1.000000
v -1.000000 0.000000 -2.000000
v 1.000000 0.000000 -2.000000
v 2.000000 0.000000 -2.000000
v -2.000000 0.000000 -2.000000
v -1.000000 0.000000 2.000000
v 1.000000 0.000000 2.000000
v 2.000000 0.000000 2.000000
v -2.000000 0.000000 2.000000
v -1.000000 1.000000 -1.000000
v -1.000000 1.000000 1.000000
v 1.000000 1.000000 1.000000
v 1.000000 1.000000 -1.000000
v 2.000000 1.000000 1.000000
v 2.000000 1.000000 -1.000000
v -2.000000 1.000000 -1.000000
v -2.000000 1.000000 1.000000
v 1.000000 1.000000 -2.000000
v -1.000000 1.000000 -2.000000
v 2.000000 1.000000 -2.000000
v -2.000000 1.000000 -2.000000
v -1.000000 1.000000 2.000000
v 1.000000 1.000000 2.000000
v 2.000000 1.000000 2.000000
v -2.000000 1.000000 2.000000
vn 0.0000 1.0000 0.0000
vn 0.0000 -1.0000 0.0000
vn -1.0000 0.0000 0.0000
vn 0.0000 0.0000 1.0000
vn 0.0000 0.0000 -1.0000
vn 1.0000 0.0000 0.0000
usemtl White
s off
f 111//92 110//92 112//92 113//92
f 95//93 97//93 96//93 93//93
f 92//93 98//93 99//93 94//93
f 99//93 103//93 100//93 94//93
f 95//93 101//93 102//93 97//93
f 94//93 100//93 101//93 95//93
f 92//93 104//93 107//93 98//93
f 96//93 106//93 105//93 93//93
f 93//93 105//93 104//93 92//93
f 109//92 108//92 114//92 115//92
f 114//92 108//92 117//92 119//92
f 111//92 113//92 118//92 116//92
f 108//92 111//92 116//92 117//92
f 109//92 115//92 123//92 120//92
f 112//92 110//92 121//92 122//92
f 110//92 109//92 120//92 121//92
f 95//94 93//94 110//94 111//94
f 104//95 105//95 121//95 120//95
f 101//96 100//96 117//96 116//96
f 94//95 95//95 111//95 108//95
f 105//95 106//95 122//95 121//95
f 102//96 101//96 116//96 118//96
f 96//97 97//97 113//97 112//97
f 107//95 104//95 120//95 123//95
f 100//96 103//96 119//96 117//96
f 103//94 99//94 114//94 119//94
f 98//94 107//94 123//94 115//94
f 99//94 98//94 115//94 114//94
f 106//97 96//97 112//97 122//97
f 92//97 94//97 108//97 109//97
f 93//96 92//96 109//96 110//96
f 97//97 102//97 118//97 113//97
