solid Exported from Blender-2.79 (sub 0)
facet normal -0.707107 -0.500000 0.500000
outer loop
vertex -1.414214 -0.707107 -0.707107
vertex -0.000000 -1.707107 0.292893
vertex -0.000000 -0.292893 1.707107
endloop
endfacet
facet normal -0.707107 -0.500000 0.500000
outer loop
vertex -0.000000 -0.292893 1.707107
vertex -1.414213 0.707107 0.707107
vertex -1.414214 -0.707107 -0.707107
endloop
endfacet
facet normal 0.000000 0.707107 0.707107
outer loop
vertex -1.414213 0.707107 0.707107
vertex -0.000000 -0.292893 1.707107
vertex 1.414214 0.707107 0.707107
endloop
endfacet
facet normal 0.000000 0.707107 0.707107
outer loop
vertex 1.414214 0.707107 0.707107
vertex 0.000000 1.707107 -0.292893
vertex -1.414213 0.707107 0.707107
endloop
endfacet
facet normal 0.707107 0.500000 -0.500000
outer loop
vertex 0.000000 1.707107 -0.292893
vertex 1.414214 0.707107 0.707107
vertex 1.414213 -0.707107 -0.707107
endloop
endfacet
facet normal 0.707107 0.500000 -0.500000
outer loop
vertex 1.414213 -0.707107 -0.707107
vertex 0.000000 0.292893 -1.707107
vertex 0.000000 1.707107 -0.292893
endloop
endfacet
facet normal 0.000000 -0.707107 -0.707107
outer loop
vertex -0.000000 -1.707107 0.292893
vertex -1.414214 -0.707107 -0.707107
vertex 0.000000 0.292893 -1.707107
endloop
endfacet
facet normal -0.000000 -0.707107 -0.707107
outer loop
vertex 0.000000 0.292893 -1.707107
vertex 1.414213 -0.707107 -0.707107
vertex -0.000000 -1.707107 0.292893
endloop
endfacet
facet normal -0.707107 0.500000 -0.500000
outer loop
vertex 0.000000 0.292893 -1.707107
vertex -1.414214 -0.707107 -0.707107
vertex -1.414213 0.707107 0.707107
endloop
endfacet
facet normal -0.707107 0.500000 -0.500000
outer loop
vertex -1.414213 0.707107 0.707107
vertex 0.000000 1.707107 -0.292893
vertex 0.000000 0.292893 -1.707107
endloop
endfacet
facet normal 0.707107 -0.500000 0.500000
outer loop
vertex 1.414214 0.707107 0.707107
vertex -0.000000 -0.292893 1.707107
vertex -0.000000 -1.707107 0.292893
endloop
endfacet
facet normal 0.707107 -0.500000 0.500000
outer loop
vertex -0.000000 -1.707107 0.292893
vertex 1.414213 -0.707107 -0.707107
vertex 1.414214 0.707107 0.707107
endloop
endfacet
endsolid Exported from Blender-2.79 (sub 0)
