solid Exported from Blender-2.79 (sub 0)
facet normal -0.707107 -0.707107 -0.000000
outer loop
vertex -0.414214 0.000000 -1.000000
vertex 1.000000 -1.414213 -1.000000
vertex 1.000000 -1.414214 1.000000
endloop
endfacet
facet normal -0.707107 -0.707107 0.000000
outer loop
vertex 1.000000 -1.414214 1.000000
vertex -0.414213 0.000000 1.000000
vertex -0.414214 0.000000 -1.000000
endloop
endfacet
facet normal 0.000000 -0.000000 1.000000
outer loop
vertex -0.414213 0.000000 1.000000
vertex 1.000000 -1.414214 1.000000
vertex 2.414214 -0.000000 1.000000
endloop
endfacet
facet normal 0.000000 -0.000000 1.000000
outer loop
vertex 2.414214 -0.000000 1.000000
vertex 1.000000 1.414213 1.000000
vertex -0.414213 0.000000 1.000000
endloop
endfacet
facet normal 0.707107 0.707107 -0.000000
outer loop
vertex 1.000000 1.414213 1.000000
vertex 2.414214 -0.000000 1.000000
vertex 2.414213 -0.000000 -1.000000
endloop
endfacet
facet normal 0.707107 0.707107 -0.000000
outer loop
vertex 2.414213 -0.000000 -1.000000
vertex 1.000000 1.414214 -1.000000
vertex 1.000000 1.414213 1.000000
endloop
endfacet
facet normal -0.000000 0.000000 -1.000000
outer loop
vertex 1.000000 -1.414213 -1.000000
vertex -0.414214 0.000000 -1.000000
vertex 1.000000 1.414214 -1.000000
endloop
endfacet
facet normal 0.000000 0.000000 -1.000000
outer loop
vertex 1.000000 1.414214 -1.000000
vertex 2.414213 -0.000000 -1.000000
vertex 1.000000 -1.414213 -1.000000
endloop
endfacet
facet normal -0.707107 0.707107 0.000000
outer loop
vertex 1.000000 1.414214 -1.000000
vertex -0.414214 0.000000 -1.000000
vertex -0.414213 0.000000 1.000000
endloop
endfacet
facet normal -0.707107 0.707107 0.000000
outer loop
vertex -0.414213 0.000000 1.000000
vertex 1.000000 1.414213 1.000000
vertex 1.000000 1.414214 -1.000000
endloop
endfacet
facet normal 0.707107 -0.707107 -0.000000
outer loop
vertex 2.414214 -0.000000 1.000000
vertex 1.000000 -1.414214 1.000000
vertex 1.000000 -1.414213 -1.000000
endloop
endfacet
facet normal 0.707107 -0.707107 -0.000000
outer loop
vertex 1.000000 -1.414213 -1.000000
vertex 2.414213 -0.000000 -1.000000
vertex 2.414214 -0.000000 1.000000
endloop
endfacet
endsolid Exported from Blender-2.79 (sub 0)
