# Blender v2.79 (sub 0) OBJ File: ''
# www.blender.org
mtllib default.mtl
o icosphere_b
v 0.855104 -0.965926 0.000000
v 1.697119 -0.619258 0.525720
v 0.731208 -0.360443 0.850640
v 1.697119 -0.619258 -0.525720
v 0.134227 -0.200482 0.000000
v 0.731208 -0.360443 -0.850640
v 2.093619 0.200482 0.000000
v 1.496638 0.360443 0.850640
v 0.530727 0.619258 0.525720
v 0.530727 0.619258 -0.525720
v 1.496638 0.360443 -0.850640
v 1.372742 0.965926 0.000000
vn -0.0245 -0.8161 0.5774
vn 0.3807 -0.9247 0.0000
vn -0.6801 -0.6405 0.3568
vn -0.6801 -0.6405 -0.3568
vn -0.0245 -0.8161 -0.5774
vn 0.9002 -0.4354 0.0000
vn 0.2446 -0.2598 0.9342
vn -0.8161 0.0245 0.5774
vn -0.8161 0.0245 -0.5774
vn 0.2446 -0.2598 -0.9342
vn 0.8161 -0.0245 0.5774
vn -0.2446 0.2598 0.9342
vn -0.9002 0.4354 0.0000
vn -0.2446 0.2598 -0.9342
vn 0.8161 -0.0245 -0.5774
vn 0.6801 0.6405 0.3568
vn 0.0245 0.8161 0.5774
vn -0.3807 0.9247 0.0000
vn 0.0245 0.8161 -0.5774
vn 0.6801 0.6405 -0.3568
usemtl Red
s off
f 1//1 2//1 3//1
f 2//2 1//2 4//2
f 1//3 3//3 5//3
f 1//4 5//4 6//4
f 1//5 6//5 4//5
f 2//6 4//6 7//6
f 3//7 2//7 8//7
f 5//8 3//8 9//8
f 6//9 5//9 10//9
f 4//10 6//10 11//10
f 2//11 7//11 8//11
f 3//12 8//12 9//12
f 5//13 9//13 10//13
f 6//14 10//14 11//14
f 4//15 11//15 7//15
f 8//16 7//16 12//16
f 9//17 8//17 12//17
f 10//18 9//18 12//18
f 11//19 10//19 12//19
f 7//20 11//20 12//20
o icosphere_a
v 0.000000 -1.000000 0.000000
v 0.723600 -0.447215 0.525720
v -0.276385 -0.447215 0.850640
v 0.723600 -0.447215 -0.525720
v -0.894425 -0.447215 0.000000
v -0.276385 -0.447215 -0.850640
v 0.894425 0.447215 0.000000
v 0.276385 0.447215 0.850640
v -0.723600 0.447215 0.525720
v -0.723600 0.447215 -0.525720
v 0.276385 0.447215 -0.850640
v 0.000000 1.000000 0.000000
vn 0.1876 -0.7947 0.5774
vn 0.6071 -0.7947 0.0000
vn -0.4911 -0.7947 0.3568
vn -0.4911 -0.7947 -0.3568
vn 0.1876 -0.7947 -0.5774
vn 0.9822 -0.1876 0.0000
vn 0.3035 -0.1876 0.9342
vn -0.7946 -0.1876 0.5774
vn -0.7946 -0.1876 -0.5774
vn 0.3035 -0.1876 -0.9342
vn 0.7946 0.1876 0.5774
vn -0.3035 0.1876 0.9342
vn -0.9822 0.1876 0.0000
vn -0.3035 0.1876 -0.9342
vn 0.7946 0.1876 -0.5774
vn 0.4911 0.7947 0.3568
vn -0.1876 0.7947 0.5774
vn -0.6071 0.7947 0.0000
vn -0.1876 0.7947 -0.5774
vn 0.4911 0.7947 -0.3568
usemtl White
s off
f 13//21 14//21 15//21
f 14//22 13//22 16//22
f 13//23 15//23 17//23
f 13//24 17//24 18//24
f 13//25 18//25 16//25
f 14//26 16//26 19//26
f 15//27 14//27 20//27
f 17//28 15//28 21//28
f 18//29 17//29 22//29
f 16//30 18//30 23//30
f 14//31 19//31 20//31
f 15//32 20//32 21//32
f 17//33 21//33 22//33
f 18//34 22//34 23//34
f 16//35 23//35 19//35
f 20//36 19//36 24//36
f 21//37 20//37 24//37
f 22//38 21//38 24//38
f 23//39 22//39 24//39
f 19//40 23//40 24//40
