solid Exported from Blender-2.79 (sub 0)
facet normal -0.024466 -0.577354 -0.816128
outer loop
vertex 1.369600 0.000000 -0.965926
vertex 2.211615 -0.525720 -0.619258
vertex 1.245704 -0.850640 -0.360443
endloop
endfacet
facet normal 0.380708 0.000000 -0.924695
outer loop
vertex 2.211615 -0.525720 -0.619258
vertex 1.369600 0.000000 -0.965926
vertex 2.211615 0.525720 -0.619258
endloop
endfacet
facet normal -0.680059 -0.356829 -0.640463
outer loop
vertex 1.369600 0.000000 -0.965926
vertex 1.245704 -0.850640 -0.360443
vertex 0.648723 0.000000 -0.200482
endloop
endfacet
facet normal -0.680059 0.356829 -0.640463
outer loop
vertex 1.369600 0.000000 -0.965926
vertex 0.648723 0.000000 -0.200482
vertex 1.245704 0.850640 -0.360443
endloop
endfacet
facet normal -0.024466 0.577354 -0.816128
outer loop
vertex 1.369600 0.000000 -0.965926
vertex 1.245704 0.850640 -0.360443
vertex 2.211615 0.525720 -0.619258
endloop
endfacet
facet normal 0.900223 0.000000 -0.435429
outer loop
vertex 2.211615 -0.525720 -0.619258
vertex 2.211615 0.525720 -0.619258
vertex 2.608115 0.000000 0.200482
endloop
endfacet
facet normal 0.244641 -0.934172 -0.259758
outer loop
vertex 1.245704 -0.850640 -0.360443
vertex 2.211615 -0.525720 -0.619258
vertex 2.011134 -0.850640 0.360443
endloop
endfacet
facet normal -0.816123 -0.577359 0.024475
outer loop
vertex 0.648723 0.000000 -0.200482
vertex 1.245704 -0.850640 -0.360443
vertex 1.045223 -0.525720 0.619258
endloop
endfacet
facet normal -0.816123 0.577359 0.024475
outer loop
vertex 1.245704 0.850640 -0.360443
vertex 0.648723 0.000000 -0.200482
vertex 1.045223 0.525720 0.619258
endloop
endfacet
facet normal 0.244641 0.934172 -0.259758
outer loop
vertex 2.211615 0.525720 -0.619258
vertex 1.245704 0.850640 -0.360443
vertex 2.011134 0.850640 0.360443
endloop
endfacet
facet normal 0.816123 -0.577360 -0.024475
outer loop
vertex 2.211615 -0.525720 -0.619258
vertex 2.608115 0.000000 0.200482
vertex 2.011134 -0.850640 0.360443
endloop
endfacet
facet normal -0.244641 -0.934172 0.259758
outer loop
vertex 1.245704 -0.850640 -0.360443
vertex 2.011134 -0.850640 0.360443
vertex 1.045223 -0.525720 0.619258
endloop
endfacet
facet normal -0.900223 0.000000 0.435429
outer loop
vertex 0.648723 0.000000 -0.200482
vertex 1.045223 -0.525720 0.619258
vertex 1.045223 0.525720 0.619258
endloop
endfacet
facet normal -0.244641 0.934172 0.259758
outer loop
vertex 1.245704 0.850640 -0.360443
vertex 1.045223 0.525720 0.619258
vertex 2.011134 0.850640 0.360443
endloop
endfacet
facet normal 0.816123 0.577360 -0.024475
outer loop
vertex 2.211615 0.525720 -0.619258
vertex 2.011134 0.850640 0.360443
vertex 2.608115 0.000000 0.200482
endloop
endfacet
facet normal 0.680059 -0.356829 0.640463
outer loop
vertex 2.011134 -0.850640 0.360443
vertex 2.608115 0.000000 0.200482
vertex 1.887238 0.000000 0.965926
endloop
endfacet
facet normal 0.024466 -0.577354 0.816128
outer loop
vertex 1.045223 -0.525720 0.619258
vertex 2.011134 -0.850640 0.360443
vertex 1.887238 0.000000 0.965926
endloop
endfacet
facet normal -0.380708 0.000000 0.924695
outer loop
vertex 1.045223 0.525720 0.619258
vertex 1.045223 -0.525720 0.619258
vertex 1.887238 0.000000 0.965926
endloop
endfacet
facet normal 0.024466 0.577354 0.816128
outer loop
vertex 2.011134 0.850640 0.360443
vertex 1.045223 0.525720 0.619258
vertex 1.887238 0.000000 0.965926
endloop
endfacet
facet normal 0.680059 0.356829 0.640463
outer loop
vertex 2.608115 0.000000 0.200482
vertex 2.011134 0.850640 0.360443
vertex 1.887238 0.000000 0.965926
endloop
endfacet
endsolid Exported from Blender-2.79 (sub 0)
